<?xml version="1.0" encoding="UTF-8" standalone="no"?>
<!-- Created with Inkscape (http://www.inkscape.org/) -->

<svg
   xmlns:dc="http://purl.org/dc/elements/1.1/"
   xmlns:cc="http://creativecommons.org/ns#"
   xmlns:rdf="http://www.w3.org/1999/02/22-rdf-syntax-ns#"
   xmlns:svg="http://www.w3.org/2000/svg"
   xmlns="http://www.w3.org/2000/svg"
   xmlns:sodipodi="http://sodipodi.sourceforge.net/DTD/sodipodi-0.dtd"
   xmlns:inkscape="http://www.inkscape.org/namespaces/inkscape"
   width="8.0029755mm"
   height="6.3626094mm"
   viewBox="0 0 8.0029755 6.3626094"
   version="1.1"
   id="svg8"
   inkscape:version="0.92.2 (5c3e80d, 2017-08-06)"
   sodipodi:docname="Direccion.svg">
  <defs
     id="defs2" />
  <sodipodi:namedview
     id="base"
     pagecolor="#ffffff"
     bordercolor="#666666"
     borderopacity="1.0"
     inkscape:pageopacity="0.0"
     inkscape:pageshadow="2"
     inkscape:zoom="0.49497475"
     inkscape:cx="93.602605"
     inkscape:cy="129.61248"
     inkscape:document-units="mm"
     inkscape:current-layer="layer1"
     showgrid="false"
     fit-margin-top="0"
     fit-margin-left="0"
     fit-margin-right="0"
     fit-margin-bottom="0"
     inkscape:window-width="1366"
     inkscape:window-height="705"
     inkscape:window-x="-8"
     inkscape:window-y="-8"
     inkscape:window-maximized="1" />
  <metadata
     id="metadata5">
    <rdf:RDF>
      <cc:Work
         rdf:about="">
        <dc:format>image/svg+xml</dc:format>
        <dc:type
           rdf:resource="http://purl.org/dc/dcmitype/StillImage" />
        <dc:title></dc:title>
      </cc:Work>
    </rdf:RDF>
  </metadata>
  <g
     inkscape:label="Capa 1"
     inkscape:groupmode="layer"
     id="layer1"
     transform="translate(-9.6070603,-239.75952)">
    <path
       inkscape:connector-curvature="0"
       id="path842"
       d="m 10.962533,246.1171 c -0.05383,-0.0206 -0.13118,-0.0881 -0.162692,-0.14198 l -0.03546,-0.0606 -0.0034,-1.25436 -0.0034,-1.25437 0.246331,-0.20482 c 0.135482,-0.11265 0.499448,-0.4144 0.808814,-0.67056 0.309365,-0.25615 0.658839,-0.54562 0.776609,-0.64325 0.11777,-0.0976 0.313361,-0.25961 0.434646,-0.35994 0.121285,-0.10033 0.29904,-0.24766 0.395011,-0.3274 0.09597,-0.0797 0.1814,-0.14498 0.189843,-0.14498 0.0084,0 0.09387,0.0652 0.189843,0.14498 0.09597,0.0797 0.273725,0.22707 0.395011,0.3274 0.121285,0.10033 0.316876,0.26231 0.434645,0.35994 0.11777,0.0976 0.467244,0.3871 0.77661,0.64325 0.309365,0.25616 0.673332,0.55791 0.808813,0.67056 l 0.246331,0.20482 -0.0034,1.25437 -0.0034,1.25436 -0.03545,0.0606 c -0.01951,0.0333 -0.06262,0.0795 -0.09588,0.10272 l -0.06042,0.0421 h -1.00352 -1.00352 l -0.0033,-0.93605 c -0.0023,-0.66553 -0.0074,-0.94105 -0.01755,-0.95332 -0.01159,-0.014 -0.128618,-0.0172 -0.623121,-0.0171 -0.33487,1e-4 -0.616009,0.005 -0.624752,0.0103 -0.01239,0.008 -0.01662,0.2183 -0.01917,0.95312 l -0.0033,0.94298 -0.990737,0.002 c -0.544905,0.001 -0.999365,-0.001 -1.009912,-0.005 z m -0.94779,-2.63078 c -0.033422,-0.0139 -0.088622,-0.0699 -0.1958377,-0.19897 -0.2375295,-0.28587 -0.24445,-0.30196 -0.1698966,-0.39492 0.040371,-0.0503 3.5307753,-2.976 3.6336843,-3.04576 0.09765,-0.0662 0.201286,-0.0917 0.351633,-0.0865 0.21845,0.008 0.220804,0.009 0.931319,0.60714 0.357898,0.30124 0.612465,0.50676 0.622779,0.50279 0.01424,-0.005 0.01811,-0.10005 0.02107,-0.51551 l 0.0036,-0.50879 0.04175,-0.0375 0.04175,-0.0375 h 0.533869 c 0.585016,0 0.569171,-0.002 0.609941,0.0772 0.01648,0.032 0.0191,0.17885 0.0191,1.07104 v 1.03393 l 0.488977,0.40802 c 0.268937,0.22441 0.516218,0.43026 0.549514,0.45746 0.06982,0.057 0.112041,0.11926 0.112041,0.16514 0,0.0418 -0.03179,0.0875 -0.211419,0.30363 -0.16557,0.19926 -0.207795,0.22915 -0.291097,0.20605 -0.03152,-0.009 -0.560832,-0.4443 -1.762325,-1.45015 -0.944504,-0.79072 -1.725909,-1.43766 -1.736455,-1.43765 -0.01055,1e-5 -0.791718,0.64679 -1.735936,1.43728 -0.944219,0.79049 -1.729457,1.44092 -1.744975,1.44539 -0.05906,0.017 -0.06781,0.0169 -0.113105,-0.002 z"
       style="fill:#000000;stroke-width:0.01281149" />
  </g>
</svg>
