<?xml version="1.0" encoding="UTF-8" standalone="no"?>
<!-- Created with Inkscape (http://www.inkscape.org/) -->

<svg
   xmlns:dc="http://purl.org/dc/elements/1.1/"
   xmlns:cc="http://creativecommons.org/ns#"
   xmlns:rdf="http://www.w3.org/1999/02/22-rdf-syntax-ns#"
   xmlns:svg="http://www.w3.org/2000/svg"
   xmlns="http://www.w3.org/2000/svg"
   xmlns:sodipodi="http://sodipodi.sourceforge.net/DTD/sodipodi-0.dtd"
   xmlns:inkscape="http://www.inkscape.org/namespaces/inkscape"
   width="8.0030088mm"
   height="6.3633399mm"
   viewBox="0 0 8.0030088 6.3633399"
   version="1.1"
   id="svg8797"
   inkscape:version="0.92.2 (5c3e80d, 2017-08-06)"
   sodipodi:docname="facebookBlack.svg">
  <defs
     id="defs8791" />
  <sodipodi:namedview
     id="base"
     pagecolor="#ffffff"
     bordercolor="#666666"
     borderopacity="1.0"
     inkscape:pageopacity="0.0"
     inkscape:pageshadow="2"
     inkscape:zoom="0.49497475"
     inkscape:cx="1043.8464"
     inkscape:cy="338.62009"
     inkscape:document-units="mm"
     inkscape:current-layer="layer1"
     showgrid="false"
     inkscape:window-width="1366"
     inkscape:window-height="705"
     inkscape:window-x="-8"
     inkscape:window-y="-8"
     inkscape:window-maximized="1"
     fit-margin-top="0"
     fit-margin-left="0"
     fit-margin-right="0"
     fit-margin-bottom="0" />
  <metadata
     id="metadata8794">
    <rdf:RDF>
      <cc:Work
         rdf:about="">
        <dc:format>image/svg+xml</dc:format>
        <dc:type
           rdf:resource="http://purl.org/dc/dcmitype/StillImage" />
        <dc:title></dc:title>
      </cc:Work>
    </rdf:RDF>
  </metadata>
  <g
     inkscape:label="Capa 1"
     inkscape:groupmode="layer"
     id="layer1"
     transform="translate(222.48213,-209.00017)">
    <path
       style="fill:#000000;stroke:none;stroke-width:0.01272045px;stroke-linecap:butt;stroke-linejoin:miter;stroke-opacity:1"
       d="m -222.4596,209.60039 -0.0201,5.27442 c 0.009,0.50725 0.17149,0.46686 0.80389,0.4765 l 3.47747,0.0122 v -2.46383 h -1.05853 v -0.95816 h 1.05368 l 0.0243,-0.97738 c 0.0528,-0.33666 0.28901,-0.61083 0.66321,-0.83799 0.31056,-0.12718 0.64952,-0.13817 0.98477,-0.16431 l 0.81394,0.0246 0.005,0.87955 -0.85903,0.016 c -0.3735,0.0871 -0.35086,0.24369 -0.36176,0.39435 l -0.039,0.66519 1.22472,0.008 -0.17288,0.94967 h -1.04754 v 2.46383 l 1.92383,-0.0122 c 0.25366,-0.0195 0.55359,0.066 0.56273,-0.5258 v -2.3168 -2.85903 c 0.0284,-0.78374 -0.28473,-0.56664 -0.84409,-0.64903 l -6.49146,0.0329 c -0.55087,-0.0691 -0.73507,0.18084 -0.64312,0.56688 z"
       id="path9361"
       inkscape:connector-curvature="0"
       sodipodi:nodetypes="ccccccccccccccccccccccccccc"
       inkscape:export-xdpi="96"
       inkscape:export-ydpi="96" />
  </g>
</svg>
