<?xml version="1.0" encoding="UTF-8" standalone="no"?>
<!-- Created with Inkscape (http://www.inkscape.org/) -->

<svg
   xmlns:dc="http://purl.org/dc/elements/1.1/"
   xmlns:cc="http://creativecommons.org/ns#"
   xmlns:rdf="http://www.w3.org/1999/02/22-rdf-syntax-ns#"
   xmlns:svg="http://www.w3.org/2000/svg"
   xmlns="http://www.w3.org/2000/svg"
   xmlns:sodipodi="http://sodipodi.sourceforge.net/DTD/sodipodi-0.dtd"
   xmlns:inkscape="http://www.inkscape.org/namespaces/inkscape"
   width="8.0030012mm"
   height="6.3631792mm"
   viewBox="0 0 8.0030012 6.3631792"
   version="1.1"
   id="svg9369"
   sodipodi:docname="instagram.svg"
   inkscape:version="0.92.2 (5c3e80d, 2017-08-06)">
  <defs
     id="defs9363" />
  <sodipodi:namedview
     id="base"
     pagecolor="#ffffff"
     bordercolor="#666666"
     borderopacity="1.0"
     inkscape:pageopacity="0.0"
     inkscape:pageshadow="2"
     inkscape:zoom="0.7"
     inkscape:cx="104.70733"
     inkscape:cy="101.738"
     inkscape:document-units="mm"
     inkscape:current-layer="layer1"
     showgrid="false"
     inkscape:window-width="1366"
     inkscape:window-height="705"
     inkscape:window-x="-8"
     inkscape:window-y="-8"
     inkscape:window-maximized="1"
     fit-margin-top="0"
     fit-margin-left="0"
     fit-margin-right="0"
     fit-margin-bottom="0" />
  <metadata
     id="metadata9366">
    <rdf:RDF>
      <cc:Work
         rdf:about="">
        <dc:format>image/svg+xml</dc:format>
        <dc:type
           rdf:resource="http://purl.org/dc/dcmitype/StillImage" />
        <dc:title></dc:title>
      </cc:Work>
    </rdf:RDF>
  </metadata>
  <g
     inkscape:label="Capa 1"
     inkscape:groupmode="layer"
     id="layer1"
     transform="translate(-35.43682,-99.133937)">
    <path
       style="fill:#000000;stroke:none;stroke-width:0.02942324"
       d="m 39.462951,99.134222 c -2.132649,3.97e-4 -2.401595,0.005 -2.623746,0.0457 -0.708964,0.129798 -1.180746,0.504698 -1.344876,1.068738 -0.05153,0.17709 -0.05726,0.38795 -0.0575,2.11165 -2.5e-4,1.77813 0.0041,1.92709 0.06027,2.08542 0.183484,0.51682 0.656765,0.88451 1.297177,1.00772 0.299115,0.0575 4.824528,0.0586 5.186576,10e-4 0.564806,-0.0895 1.011531,-0.35044 1.23968,-0.72409 0.216346,-0.35433 0.219289,-0.38708 0.219289,-2.42274 0,-2.02845 -0.003,-2.06192 -0.215681,-2.415728 -0.134977,-0.224534 -0.471835,-0.492177 -0.752045,-0.597539 -0.431634,-0.1623 -0.403108,-0.160795 -3.009145,-0.160362 z m -0.03326,0.822661 c 0.722061,3.96e-4 1.445466,0.0152 1.622179,0.04422 0.344331,0.0565 0.581226,0.15241 0.82585,0.3343 0.239992,0.17844 0.380865,0.38154 0.458369,0.66086 0.06937,0.25 0.102791,1.66259 0.05221,2.20685 -0.05467,0.58821 -0.162634,0.81718 -0.507423,1.07637 -0.341563,0.25675 -0.653244,0.34187 -1.37833,0.37636 -0.608785,0.029 -1.973176,0.0275 -2.397493,-0.003 -0.815854,-0.0579 -1.334653,-0.3782 -1.549341,-0.95653 -0.08441,-0.22739 -0.11057,-2.36173 -0.03262,-2.66124 0.144673,-0.55585 0.597804,-0.91901 1.292599,-1.035987 0.171248,-0.02883 0.891931,-0.04294 1.613994,-0.04257 z m -0.0063,0.396757 c -0.753626,0.001 -1.508165,0.0374 -1.744522,0.10769 -0.251911,0.0749 -0.478709,0.25629 -0.574203,0.45916 -0.0886,0.18821 -0.132311,0.69244 -0.131625,1.51852 8.73e-4,1.07321 0.05219,1.29317 0.358521,1.53665 0.206824,0.16439 0.381917,0.22456 0.753786,0.25899 0.344778,0.0319 2.443246,0.0313 2.736549,-8e-4 0.333143,-0.0365 0.517725,-0.10233 0.712338,-0.25427 0.209672,-0.1637 0.283578,-0.32765 0.327582,-0.72649 0.04747,-0.43023 0.01221,-1.994 -0.0495,-2.19512 -0.09164,-0.29866 -0.309573,-0.5007 -0.649748,-0.6023 -0.232805,-0.0695 -0.985546,-0.10327 -1.739173,-0.10206 z m 1.583439,0.41724 c 0.07677,-0.001 0.155183,0.0267 0.237081,0.0838 0.09973,0.0696 0.116672,0.0979 0.116672,0.19474 0,0.0915 -0.01947,0.12881 -0.101524,0.19403 -0.147029,0.11686 -0.3256,0.11367 -0.479319,-0.009 -0.156118,-0.12409 -0.156118,-0.24838 0,-0.37247 0.07522,-0.0598 0.150321,-0.0903 0.22709,-0.0916 z m -1.589369,0.34035 c 0.177076,10e-4 0.361366,0.0208 0.494209,0.0564 1.296838,0.34724 1.405991,1.73599 0.17449,2.21975 -0.240976,0.0947 -0.275313,0.10078 -0.604368,0.10765 -0.375324,0.008 -0.549003,-0.0254 -0.839065,-0.16047 -0.209527,-0.0976 -0.474259,-0.33653 -0.592316,-0.53462 -0.100693,-0.16896 -0.105649,-0.19215 -0.105649,-0.49343 0,-0.31197 0.0016,-0.31877 0.122731,-0.51352 0.198537,-0.31929 0.56684,-0.56484 0.977394,-0.65164 0.101476,-0.0215 0.234848,-0.0312 0.372574,-0.0301 z m 0.02108,0.40859 c -0.374533,-8e-5 -0.746778,0.17005 -0.927696,0.48319 -0.09964,0.17246 -0.09499,0.46742 0.01012,0.64083 0.105902,0.17472 0.330212,0.34507 0.538105,0.40859 0.366734,0.11204 0.787103,0.045 1.065251,-0.16984 0.398387,-0.30775 0.409405,-0.78876 0.02559,-1.1149 -0.197809,-0.16809 -0.455112,-0.24781 -0.71137,-0.24787 z"
       id="path10116"
       inkscape:connector-curvature="0" />
  </g>
</svg>
