<?xml version="1.0" encoding="UTF-8" standalone="no"?>
<!-- Created with Inkscape (http://www.inkscape.org/) -->

<svg
   xmlns:dc="http://purl.org/dc/elements/1.1/"
   xmlns:cc="http://creativecommons.org/ns#"
   xmlns:rdf="http://www.w3.org/1999/02/22-rdf-syntax-ns#"
   xmlns:svg="http://www.w3.org/2000/svg"
   xmlns="http://www.w3.org/2000/svg"
   xmlns:sodipodi="http://sodipodi.sourceforge.net/DTD/sodipodi-0.dtd"
   xmlns:inkscape="http://www.inkscape.org/namespaces/inkscape"
   width="8.0025415mm"
   height="6.3629236mm"
   viewBox="0 0 8.0025415 6.3629237"
   version="1.1"
   id="svg10127"
   inkscape:version="0.92.2 (5c3e80d, 2017-08-06)"
   sodipodi:docname="outlook.svg">
  <defs
     id="defs10121" />
  <sodipodi:namedview
     id="base"
     pagecolor="#ffffff"
     bordercolor="#666666"
     borderopacity="1.0"
     inkscape:pageopacity="0.0"
     inkscape:pageshadow="2"
     inkscape:zoom="1.4"
     inkscape:cx="323.32658"
     inkscape:cy="66.515443"
     inkscape:document-units="mm"
     inkscape:current-layer="layer1"
     showgrid="false"
     inkscape:window-width="1366"
     inkscape:window-height="705"
     inkscape:window-x="-8"
     inkscape:window-y="-8"
     inkscape:window-maximized="1"
     fit-margin-top="0"
     fit-margin-left="0"
     fit-margin-right="0"
     fit-margin-bottom="0" />
  <metadata
     id="metadata10124">
    <rdf:RDF>
      <cc:Work
         rdf:about="">
        <dc:format>image/svg+xml</dc:format>
        <dc:type
           rdf:resource="http://purl.org/dc/dcmitype/StillImage" />
        <dc:title></dc:title>
      </cc:Work>
    </rdf:RDF>
  </metadata>
  <g
     inkscape:label="Capa 1"
     inkscape:groupmode="layer"
     id="layer1"
     transform="translate(1.4809189,-154.9215)">
    <path
       inkscape:connector-curvature="0"
       id="path10170"
       d="m 2.9612146,161.27327 c -0.031564,-0.006 -0.1496796,-0.0249 -0.262452,-0.0411 -0.1127724,-0.0162 -0.2419475,-0.0352 -0.2870581,-0.0423 -0.045111,-0.007 -0.1669009,-0.0253 -0.2706554,-0.0405 -0.1037503,-0.0152 -0.229233,-0.0337 -0.2788548,-0.0413 -0.049622,-0.008 -0.1751044,-0.0262 -0.2788547,-0.0413 -0.1037503,-0.0152 -0.2292372,-0.0338 -0.2788589,-0.0414 -0.049618,-0.008 -0.1751045,-0.0262 -0.2788548,-0.0414 -0.10375025,-0.0152 -0.22923719,-0.0338 -0.27885468,-0.0413 -0.0496217,-0.008 -0.17510445,-0.0262 -0.27885472,-0.0414 -0.1037545,-0.0152 -0.22923723,-0.0338 -0.27885894,-0.0414 -0.0496175,-0.008 -0.17510444,-0.0262 -0.27885474,-0.0413 -0.10375029,-0.0152 -0.22923719,-0.0338 -0.27885469,-0.0414 -0.0496218,-0.008 -0.17510852,-0.0261 -0.27885881,-0.0413 -0.1037503,-0.0152 -0.2255448,-0.0334 -0.27065129,-0.0406 -0.0451109,-0.007 -0.17797823,-0.0264 -0.29526163,-0.0428 -0.1172835,-0.0163 -0.2243126,-0.0345 -0.2378458,-0.0403 -0.021691,-0.009 -0.025108,-0.3041 -0.028737,-2.50522 -0.00295,-1.66484 0.00127,-2.50017 0.012406,-2.51138 0.00912,-0.009 0.051579,-0.0205 0.094365,-0.0252 0.042785,-0.004 0.1626768,-0.0213 0.2664271,-0.0372 0.1037545,-0.0158 0.27352501,-0.0411 0.3772795,-0.0562 0.10375021,-0.0151 0.2255448,-0.0331 0.2706512,-0.0401 0.045111,-0.007 0.16690511,-0.0249 0.27065532,-0.0401 0.10375029,-0.0151 0.27352503,-0.0402 0.37727531,-0.0558 0.31623874,-0.0474 0.54265286,-0.0814 0.68893965,-0.10308 0.57215412,-0.0849 0.69724022,-0.10347 0.84886942,-0.12613 0.078941,-0.0118 0.2247261,-0.0332 0.3239653,-0.0475 0.099239,-0.0144 0.2653215,-0.0388 0.369076,-0.0545 0.3221381,-0.0485 0.5808809,-0.0856 0.6151211,-0.088 0.032282,-0.003 0.032915,0.008 0.041017,0.68065 l 0.00819,0.68303 1.6157252,0.007 c 1.1667412,0.005 1.6271188,0.0113 1.656734,0.0227 0.057775,0.0224 0.1234698,0.0863 0.1453964,0.14144 0.025024,0.063 0.026459,3.22671 0.00169,3.30227 -0.020171,0.0611 -0.086541,0.13112 -0.1454512,0.1534 -0.030974,0.0118 -0.4803251,0.0179 -1.65819,0.023 l -1.615725,0.007 -0.00819,0.66904 c -0.00903,0.73848 9.7e-5,0.68553 -0.1148233,0.66203 z m 3.2930396,-2.93786 c 0.00211,-0.7547 -0.00169,-1.37712 -0.00882,-1.38314 -0.00717,-0.006 -0.4851104,0.30894 -1.0621216,0.6999 -0.7456381,0.50522 -1.0669239,0.71489 -1.1106926,0.72479 -0.1125192,0.0255 -0.1599129,0.003 -0.5700864,-0.27631 -0.2120116,-0.14412 -0.3947034,-0.2622 -0.405979,-0.26239 -0.016205,-2.8e-4 -0.020509,0.19448 -0.020509,0.92876 0,0.511 0.00498,0.93327 0.011014,0.93836 0.00603,0.005 0.7202174,0.008 1.5870171,0.006 l 1.5759991,-0.003 z m -5.38446046,0.8891 c 0.27456306,-0.0487 0.50738296,-0.2066 0.65083406,-0.44139 0.1332051,-0.21803 0.1774802,-0.39355 0.1775098,-0.70373 2.95e-5,-0.40099 -0.1067887,-0.67073 -0.3514369,-0.88741 -0.2531725,-0.22422 -0.61715509,-0.29068 -0.97720476,-0.1784 -0.31916313,0.0995 -0.53780421,0.33115 -0.66088583,0.70014 -0.0300457,0.0901 -0.034645,0.142 -0.0354052,0.40016 -8.44e-4,0.24854 0.004222,0.31215 0.0298766,0.39209 0.12812009,0.39753 0.41109345,0.65479 0.78940682,0.71771 0.1517389,0.0252 0.23867712,0.0254 0.37727527,8.7e-4 z m -0.39367799,-0.45317 c -0.23606079,-0.0927 -0.36658207,-0.36264 -0.34787106,-0.71955 0.0164576,-0.31437 0.13323888,-0.52928 0.33319849,-0.61329 0.29792863,-0.12517 0.58694062,0.0408 0.67156212,0.38561 0.067185,0.27376 0.036755,0.56167 -0.079613,0.75304 -0.11780252,0.19373 -0.36586468,0.27718 -0.57727655,0.19419 z M 4.105219,158.13113 c 0.044596,-0.0285 0.5476071,-0.36799 1.1178032,-0.7545 l 1.0367179,-0.70276 -0.00481,-0.0769 -0.00481,-0.0769 H 4.6672033 3.0842836 v 0.52397 0.52397 l 0.3608725,0.24559 c 0.4203351,0.28607 0.5477548,0.36919 0.5658918,0.36919 0.00722,0 0.049617,-0.0232 0.094213,-0.0517 z"
       style="fill:#000000;stroke-width:0.01504467" />
  </g>
</svg>
