<?xml version="1.0" encoding="UTF-8" standalone="no"?>
<!-- Created with Inkscape (http://www.inkscape.org/) -->

<svg
   xmlns:dc="http://purl.org/dc/elements/1.1/"
   xmlns:cc="http://creativecommons.org/ns#"
   xmlns:rdf="http://www.w3.org/1999/02/22-rdf-syntax-ns#"
   xmlns:svg="http://www.w3.org/2000/svg"
   xmlns="http://www.w3.org/2000/svg"
   xmlns:sodipodi="http://sodipodi.sourceforge.net/DTD/sodipodi-0.dtd"
   xmlns:inkscape="http://www.inkscape.org/namespaces/inkscape"
   width="8.0030003mm"
   height="6.3632035mm"
   viewBox="0 0 8.0030003 6.3632035"
   version="1.1"
   id="svg10127"
   inkscape:version="0.92.2 (5c3e80d, 2017-08-06)"
   sodipodi:docname="whatsapp.svg">
  <defs
     id="defs10121" />
  <sodipodi:namedview
     id="base"
     pagecolor="#ffffff"
     bordercolor="#666666"
     borderopacity="1.0"
     inkscape:pageopacity="0.0"
     inkscape:pageshadow="2"
     inkscape:zoom="0.49497475"
     inkscape:cx="455.50762"
     inkscape:cy="205.31078"
     inkscape:document-units="mm"
     inkscape:current-layer="layer1"
     showgrid="false"
     inkscape:window-width="1366"
     inkscape:window-height="705"
     inkscape:window-x="-8"
     inkscape:window-y="-8"
     inkscape:window-maximized="1"
     fit-margin-top="0"
     fit-margin-left="0"
     fit-margin-right="0"
     fit-margin-bottom="0" />
  <metadata
     id="metadata10124">
    <rdf:RDF>
      <cc:Work
         rdf:about="">
        <dc:format>image/svg+xml</dc:format>
        <dc:type
           rdf:resource="http://purl.org/dc/dcmitype/StillImage" />
        <dc:title></dc:title>
      </cc:Work>
    </rdf:RDF>
  </metadata>
  <g
     inkscape:label="Capa 1"
     inkscape:groupmode="layer"
     id="layer1"
     transform="translate(-12.734888,-196.45861)">
    <path
       inkscape:connector-curvature="0"
       id="path10215"
       d="m 99.621674,172.99239 c 0.190995,-0.0764 0.419196,-0.067 0.507116,0.0209 0.0879,0.0879 -0.0683,0.15045 -0.347262,0.13896 -0.308227,-0.0127 -0.37092,-0.0754 -0.159854,-0.15985 z m 66.989196,-8.12124 c 0,-0.0549 0.20836,-0.2633 0.46302,-0.46302 0.41964,-0.32911 0.429,-0.31975 0.0999,0.0999 -0.34565,0.44073 -0.56292,0.58088 -0.56292,0.36312 z M 95.4042,127.73094 c -0.329107,-0.41964 -0.319749,-0.429 0.0999,-0.0999 0.44073,0.34564 0.580888,0.56291 0.363125,0.56291 -0.05494,0 -0.2633,-0.20836 -0.463021,-0.46302 z m 56.67547,-0.74965 c 0.0127,-0.30823 0.0754,-0.37092 0.15985,-0.15985 0.0764,0.19099 0.067,0.4192 -0.0209,0.50712 -0.0879,0.0879 -0.15045,-0.0684 -0.13897,-0.34727 z m -59.709566,-2.02847 -0.504029,-0.59532 0.595313,0.50403 c 0.559445,0.47366 0.715761,0.6866 0.504028,0.6866 -0.05021,0 -0.318098,-0.26789 -0.595312,-0.59531 z m -2.910417,-2.91042 -0.504028,-0.59531 0.595312,0.50403 c 0.559446,0.47366 0.715762,0.68659 0.504029,0.68659 -0.05021,0 -0.318098,-0.26789 -0.595313,-0.59531 z M 29.313004,111.37087 c 0.01269,-0.30822 0.07539,-0.37092 0.159852,-0.15985 0.07643,0.19099 0.06703,0.4192 -0.02089,0.50712 -0.08792,0.0879 -0.150452,-0.0684 -0.138964,-0.34727 z m 149.510476,-3.54982 c 0,-0.36381 0.0601,-0.51263 0.13345,-0.33073 0.0734,0.1819 0.0734,0.47955 0,0.66145 -0.0734,0.18191 -0.13345,0.0331 -0.13345,-0.33072 z m 0,-3.175 c 0,-0.36381 0.0601,-0.51263 0.13345,-0.33073 0.0734,0.1819 0.0734,0.47955 0,0.66145 -0.0734,0.18191 -0.13345,0.0331 -0.13345,-0.33072 z M 85.334174,69.275722 c 0.190995,-0.07643 0.419198,-0.06703 0.507119,0.02088 0.08792,0.08792 -0.06835,0.150453 -0.347266,0.138965 -0.308226,-0.0127 -0.370919,-0.07539 -0.159853,-0.159851 z M 58.1317,44.485733 c 0,-0.05494 0.208359,-0.263302 0.46302,-0.463021 0.419646,-0.329108 0.429004,-0.319749 0.0999,0.0999 -0.345644,0.440729 -0.562917,0.580887 -0.562917,0.363126 z"
       style="fill:#d7d7d7;stroke-width:0.26458335" />
    <path
       inkscape:connector-curvature="0"
       id="path10213"
       d="m 29.84217,116.13337 c 0.0127,-0.30822 0.07539,-0.37092 0.159853,-0.15985 0.07643,0.19099 0.06703,0.4192 -0.02089,0.50712 -0.08792,0.0879 -0.150453,-0.0683 -0.138964,-0.34727 z m 52.597447,-2.42535 c -0.329108,-0.41964 -0.319749,-0.429 0.0999,-0.0999 0.440729,0.34564 0.580887,0.56292 0.363124,0.56292 -0.05494,0 -0.2633,-0.20836 -0.46302,-0.46303 z m 96.383863,-4.82864 c 0,-0.3638 0.0601,-0.51263 0.13345,-0.33073 0.0734,0.1819 0.0734,0.47956 0,0.66146 -0.0734,0.1819 -0.13345,0.0331 -0.13345,-0.33073 z m -0.0209,-5.18142 c 0.0127,-0.30823 0.0754,-0.37092 0.15985,-0.15986 0.0764,0.191 0.067,0.4192 -0.0209,0.50712 -0.0879,0.0879 -0.15046,-0.0683 -0.13897,-0.34726 z M 43.071348,96.289622 c 0.0127,-0.308226 0.07539,-0.370919 0.159853,-0.159853 0.07643,0.190995 0.06703,0.419201 -0.02089,0.507119 -0.08792,0.08792 -0.150453,-0.06835 -0.138965,-0.347266 z M 29.842181,96.025039 c 0.0127,-0.308226 0.07539,-0.370919 0.159853,-0.159853 0.07643,0.190994 0.06703,0.4192 -0.02089,0.507119 -0.08792,0.08792 -0.150453,-0.06835 -0.138965,-0.347266 z"
       style="fill:#c7c7c7;stroke-width:0.26458335" />
    <path
       inkscape:connector-curvature="0"
       id="path10211"
       d="m 87.731283,120.05802 c -0.329107,-0.41964 -0.319749,-0.429 0.0999,-0.0999 0.44073,0.34564 0.580888,0.56292 0.363125,0.56292 -0.05494,0 -0.2633,-0.20836 -0.463021,-0.46303 z M 29.313004,110.04796 c 0.01269,-0.30823 0.07539,-0.37092 0.159852,-0.15986 0.07643,0.191 0.06703,0.4192 -0.02089,0.50712 -0.08792,0.0879 -0.150452,-0.0683 -0.138964,-0.34726 z"
       style="fill:#b7b7b7;stroke-width:0.26458335" />
    <path
       inkscape:connector-curvature="0"
       id="path10209"
       d="m 105.70709,186.75072 c 0.191,-0.0764 0.4192,-0.067 0.50712,0.0209 0.0879,0.0879 -0.0683,0.15045 -0.34727,0.13896 -0.30822,-0.0127 -0.37091,-0.0754 -0.15985,-0.15985 z m 53.36315,-32.89217 c 0.26339,-0.29105 0.53843,-0.52917 0.61119,-0.52917 0.0728,0 -0.0832,0.23812 -0.3466,0.52917 -0.26339,0.29104 -0.53843,0.52916 -0.61119,0.52916 -0.0728,0 0.0832,-0.23812 0.3466,-0.52916 z m -3.87021,-98.888027 c -0.3291,-0.419645 -0.31974,-0.429003 0.0999,-0.0999 0.25466,0.199721 0.46302,0.40808 0.46302,0.463021 0,0.217763 -0.21727,0.07761 -0.56292,-0.363125 z"
       style="fill:#a7a7a7;stroke-width:0.26458335" />
    <path
       inkscape:connector-curvature="0"
       id="path10207"
       d="m 106.23626,173.78614 c 0.19099,-0.0764 0.4192,-0.067 0.50712,0.0209 0.0879,0.0879 -0.0684,0.15045 -0.34727,0.13896 -0.30823,-0.0127 -0.37092,-0.0754 -0.15985,-0.15985 z m 55.34753,-22.67332 c 0,-0.0549 0.20835,-0.2633 0.46302,-0.46302 0.41964,-0.32911 0.429,-0.31975 0.0999,0.0999 -0.34564,0.44073 -0.56291,0.58089 -0.56291,0.36313 z M 99.108367,130.64136 c -0.329107,-0.41965 -0.319749,-0.42901 0.0999,-0.0999 0.44073,0.34565 0.580887,0.56292 0.363125,0.56292 -0.05494,0 -0.2633,-0.20836 -0.463021,-0.46302 z m -56.83078,-25.09132 c 0.0127,-0.30823 0.07539,-0.37092 0.159853,-0.15985 0.07643,0.19099 0.06703,0.4192 -0.02089,0.50711 -0.08792,0.0879 -0.150453,-0.0683 -0.138964,-0.34726 z M 168.16462,49.14969 c -0.32911,-0.419644 -0.31975,-0.429002 0.0999,-0.09989 0.44073,0.345644 0.58089,0.562916 0.36313,0.562916 -0.0549,0 -0.2633,-0.20836 -0.46302,-0.463021 z"
       style="fill:#979797;stroke-width:0.26458335" />
    <path
       inkscape:connector-curvature="0"
       id="path10205"
       d="m 107.03001,186.75072 c 0.19099,-0.0764 0.4192,-0.067 0.50712,0.0209 0.0879,0.0879 -0.0684,0.15045 -0.34727,0.13896 -0.30823,-0.0127 -0.37092,-0.0754 -0.15985,-0.15985 z m 24.46246,-42.60053 c 0.25743,-0.0671 0.61461,-0.0627 0.79375,0.01 0.17913,0.0725 -0.0315,0.12736 -0.46806,0.12197 -0.43656,-0.005 -0.58313,-0.0647 -0.32569,-0.13177 z m -89.214883,-39.3939 c 0.0127,-0.30823 0.07539,-0.37092 0.159853,-0.15985 0.07643,0.19099 0.06703,0.4192 -0.02089,0.50711 -0.08792,0.0879 -0.150453,-0.0683 -0.138964,-0.34726 z m -12.964583,-1.5875 c 0.01269,-0.30823 0.07539,-0.37092 0.159852,-0.15985 0.07643,0.19099 0.06703,0.4192 -0.02089,0.50711 -0.08792,0.0879 -0.150452,-0.0684 -0.138964,-0.34726 z m 0.264583,-3.704168 c 0.01269,-0.308226 0.07539,-0.370919 0.159853,-0.159853 0.07643,0.190995 0.06703,0.419201 -0.02089,0.507119 -0.08792,0.08792 -0.150453,-0.06835 -0.138965,-0.347266 z"
       style="fill:#878787;stroke-width:0.26458335" />
    <path
       inkscape:connector-curvature="0"
       id="path10203"
       d="m 92.493783,124.82052 c -0.329107,-0.41964 -0.319749,-0.429 0.0999,-0.0999 0.254662,0.19972 0.463021,0.40808 0.463021,0.46302 0,0.21776 -0.217273,0.0776 -0.562917,-0.36313 z m -2.910416,-2.91041 c -0.329108,-0.41965 -0.319749,-0.42901 0.0999,-0.0999 0.440729,0.34565 0.580887,0.56292 0.363125,0.56292 -0.05494,0 -0.263301,-0.20836 -0.463021,-0.46302 z m 10.054167,-9.78959 c -0.329108,-0.41964 -0.319749,-0.429 0.0999,-0.0999 0.254661,0.19972 0.463016,0.40808 0.463016,0.46302 0,0.21776 -0.217269,0.0776 -0.562912,-0.36313 z m -70.32453,-8.15798 c 0.01269,-0.30823 0.07539,-0.37092 0.159852,-0.15985 0.07643,0.19099 0.06703,0.4192 -0.02089,0.50711 -0.08792,0.0879 -0.150452,-0.0683 -0.138964,-0.34726 z M 160.4917,59.997607 c -0.32911,-0.419645 -0.31975,-0.429004 0.0999,-0.0999 0.44073,0.345644 0.58088,0.562917 0.36312,0.562917 -0.0549,0 -0.2633,-0.20836 -0.46302,-0.463021 z m -3.175,-3.175 c -0.32911,-0.419645 -0.31975,-0.429004 0.0999,-0.0999 0.44073,0.345643 0.58088,0.562917 0.36312,0.562917 -0.0549,0 -0.2633,-0.20836 -0.46302,-0.463021 z m 13.75833,-4.497917 c -0.3291,-0.419644 -0.31974,-0.429002 0.0999,-0.0999 0.25466,0.199721 0.46302,0.40808 0.46302,0.463021 0,0.217762 -0.21727,0.0776 -0.56292,-0.363125 z"
       style="fill:#777777;stroke-width:0.26458335" />
    <path
       inkscape:connector-curvature="0"
       id="path10201"
       d="m 33.797779,186.90504 c 0.01084,-0.003 0.02379,-0.003 0.02878,8.9e-4 0.005,0.004 -0.0039,0.006 -0.01971,0.006 -0.01749,-5.4e-4 -0.02105,-0.003 -0.0091,-0.007 z m 0.300338,0 c 0.01084,-0.003 0.02379,-0.003 0.02878,8.9e-4 0.005,0.004 -0.0039,0.006 -0.01971,0.006 -0.01749,-5.4e-4 -0.02105,-0.003 -0.0091,-0.007 z m -0.181141,-0.54341 c 0.01032,-0.003 0.02722,-0.003 0.03754,0 0.01032,0.003 0.0019,0.006 -0.01877,0.006 -0.02065,0 -0.0291,-0.003 -0.01877,-0.006 z m 3.352529,-0.5291 c 0,-0.002 0.01183,-0.0113 0.02628,-0.0198 0.02382,-0.0141 0.02435,-0.0137 0.0057,0.004 -0.01962,0.0189 -0.03195,0.0249 -0.03195,0.0155 z m -1.00265,-1.47943 c 0,-0.0218 0.0031,-0.0307 0.0069,-0.0198 0.0038,0.0109 0.0038,0.0287 0,0.0396 -0.0038,0.0109 -0.0069,0.002 -0.0069,-0.0198 z m -1.234872,-0.44599 c 0,-0.002 0.01183,-0.0113 0.02628,-0.0198 0.02382,-0.0141 0.02435,-0.0137 0.0057,0.004 -0.01962,0.0189 -0.03195,0.0249 -0.03195,0.0155 z m -5.720265,-0.512 c 7.21e-4,-0.0132 0.0043,-0.0159 0.0091,-0.007 0.0043,0.008 0.0038,0.0179 -0.0012,0.0217 -0.005,0.004 -0.0085,-0.003 -0.0079,-0.0149 z m 0.737016,-0.0613 c 0,-0.0156 0.0034,-0.0219 0.0076,-0.0142 0.0042,0.008 0.0042,0.0205 0,0.0283 -0.0042,0.008 -0.0076,10e-4 -0.0076,-0.0142 z m 3.167386,-0.59556 c 7.21e-4,-0.0132 0.0043,-0.0159 0.0091,-0.007 0.0043,0.008 0.0038,0.0179 -0.0012,0.0217 -0.005,0.004 -0.0085,-0.003 -0.0079,-0.0149 z m 3.70608,-1.12316 c -0.01868,-0.018 -0.01815,-0.0184 0.0057,-0.004 0.02502,0.0148 0.03297,0.0241 0.02061,0.0241 -0.0031,0 -0.01495,-0.009 -0.02628,-0.0198 z m -3.004286,-1.06389 c 0.01084,-0.003 0.02379,-0.003 0.02878,9e-4 0.005,0.004 -0.0039,0.006 -0.01971,0.006 -0.01749,-5.5e-4 -0.02105,-0.003 -0.0091,-0.007 z"
       style="fill:#676767;stroke-width:0.01304154" />
    <path
       inkscape:connector-curvature="0"
       id="path10199"
       d="m 112.56972,186.75624 c 0.1819,-0.0734 0.47956,-0.0734 0.66146,0 0.1819,0.0734 0.0331,0.13345 -0.33073,0.13345 -0.3638,0 -0.51263,-0.0601 -0.33073,-0.13345 z m 54.30573,-22.41426 c 0,-0.0549 0.20836,-0.2633 0.46302,-0.46302 0.41965,-0.3291 0.42901,-0.31975 0.0999,0.0999 -0.34564,0.44073 -0.56292,0.58089 -0.56292,0.36312 z m 1.85209,-1.85208 c 0,-0.0549 0.20835,-0.2633 0.46302,-0.46302 0.41964,-0.32911 0.429,-0.31975 0.0999,0.0999 -0.34564,0.44073 -0.56291,0.58088 -0.56291,0.36312 z M 29.358839,106.10125 c 0.0029,-0.58208 0.05712,-0.78905 0.120406,-0.45993 0.06329,0.32912 0.06088,0.80537 -0.0053,1.05833 -0.06622,0.25297 -0.118003,-0.0163 -0.115067,-0.5984 z M 172.39795,53.91219 c -0.32911,-0.419645 -0.31975,-0.429003 0.0999,-0.0999 0.25466,0.199721 0.46302,0.40808 0.46302,0.463021 0,0.217762 -0.21727,0.0776 -0.56292,-0.363125 z m -6.08542,-6.35 c -0.3291,-0.419644 -0.31974,-0.429002 0.0999,-0.0999 0.25466,0.199719 0.46302,0.408079 0.46302,0.463021 0,0.217761 -0.21727,0.0776 -0.56292,-0.363126 z m -56.63669,-9.24272 c 0.191,-0.07643 0.4192,-0.06703 0.50712,0.02089 0.0879,0.08792 -0.0683,0.150453 -0.34727,0.138964 -0.30822,-0.01269 -0.37091,-0.07539 -0.15985,-0.159852 z m 1.5875,0 c 0.191,-0.07643 0.4192,-0.06703 0.50712,0.02089 0.0879,0.08792 -0.0683,0.150453 -0.34727,0.138964 -0.30822,-0.01269 -0.37091,-0.07539 -0.15985,-0.159852 z"
       style="fill:#575757;stroke-width:0.26458335" />
    <path
       inkscape:connector-curvature="0"
       id="path10197"
       d="m 191.76717,110.04796 c 0.0127,-0.30823 0.0754,-0.37092 0.15986,-0.15986 0.0764,0.191 0.067,0.4192 -0.0209,0.50712 -0.0879,0.0879 -0.15045,-0.0683 -0.13896,-0.34726 z m 0,-7.67292 c 0.0127,-0.30823 0.0754,-0.37092 0.15986,-0.15985 0.0764,0.19099 0.067,0.4192 -0.0209,0.50711 -0.0879,0.0879 -0.15045,-0.0684 -0.13896,-0.34726 z M 169.48753,50.73719 c -0.3291,-0.419644 -0.31974,-0.429002 0.0999,-0.09989 0.44073,0.345644 0.58089,0.562916 0.36313,0.562916 -0.0549,0 -0.2633,-0.20836 -0.46303,-0.463021 z m -2.38125,-2.38125 c -0.3291,-0.419644 -0.31974,-0.429002 0.0999,-0.09989 0.25466,0.199719 0.46302,0.408079 0.46302,0.463021 0,0.217761 -0.21727,0.0776 -0.56292,-0.363126 z M 108.60097,38.324982 c 0.1819,-0.0734 0.47956,-0.0734 0.66146,0 0.1819,0.0734 0.0331,0.133452 -0.33073,0.133452 -0.3638,0 -0.51263,-0.06005 -0.33073,-0.133452 z m 3.43958,0 c 0.18191,-0.0734 0.47956,-0.0734 0.66146,0 0.1819,0.0734 0.0331,0.133452 -0.33073,0.133452 -0.3638,0 -0.51263,-0.06005 -0.33073,-0.133452 z M 106.76542,25.61947 c 0.191,-0.07643 0.41921,-0.06703 0.50712,0.02089 0.0879,0.08792 -0.0684,0.150453 -0.34726,0.138964 -0.30823,-0.0127 -0.37092,-0.07539 -0.15986,-0.159852 z"
       style="fill:#474747;stroke-width:0.26458335" />
    <path
       inkscape:connector-curvature="0"
       id="path10195"
       d="m 110.20501,186.75072 c 0.19099,-0.0764 0.4192,-0.067 0.50712,0.0209 0.0879,0.0879 -0.0684,0.15045 -0.34727,0.13896 -0.30823,-0.0127 -0.37092,-0.0754 -0.15985,-0.15985 z m 1.05833,0 c 0.191,-0.0764 0.4192,-0.067 0.50712,0.0209 0.0879,0.0879 -0.0683,0.15045 -0.34727,0.13896 -0.30822,-0.0127 -0.37091,-0.0754 -0.15985,-0.15985 z m -9.26042,-0.52916 c 0.191,-0.0764 0.41921,-0.067 0.50712,0.0209 0.0879,0.0879 -0.0684,0.15046 -0.34726,0.13897 -0.30823,-0.0127 -0.37092,-0.0754 -0.15986,-0.15985 z m 53.76003,-29.02333 c 0,-0.0549 0.20836,-0.2633 0.46302,-0.46302 0.41965,-0.3291 0.42901,-0.31975 0.0999,0.0999 -0.34565,0.44073 -0.56292,0.58089 -0.56292,0.36312 z m 19.31459,-2.11666 c 0,-0.0549 0.20835,-0.2633 0.46302,-0.46302 0.41964,-0.32911 0.429,-0.31975 0.0999,0.0999 -0.34564,0.44073 -0.56291,0.58089 -0.56291,0.36313 z m -71.47126,-38.9923 c -0.3291,-0.41964 -0.31975,-0.429 0.0999,-0.0999 0.44073,0.34564 0.58089,0.56292 0.36312,0.56292 -0.0549,0 -0.2633,-0.20836 -0.46302,-0.46303 z m 88.16089,-6.83506 c 0.0127,-0.30823 0.0754,-0.37092 0.15986,-0.15986 0.0764,0.191 0.067,0.4192 -0.0209,0.50712 -0.0879,0.0879 -0.15045,-0.0684 -0.13896,-0.34726 z m -97.685887,-4.01285 c -0.329107,-0.41965 -0.319749,-0.42901 0.0999,-0.0999 0.440729,0.34565 0.580887,0.56292 0.363124,0.56292 -0.05494,0 -0.2633,-0.20836 -0.463021,-0.46302 z m 97.685887,-2.07257 c 0.0127,-0.30823 0.0754,-0.37092 0.15986,-0.15985 0.0764,0.19099 0.067,0.4192 -0.0209,0.50711 -0.0879,0.0879 -0.15045,-0.0684 -0.13896,-0.34726 z M 92.26295,98.196149 c 0,-0.05494 0.20836,-0.2633 0.463021,-0.463021 0.419645,-0.329107 0.429004,-0.319749 0.0999,0.0999 -0.345643,0.44073 -0.562917,0.580888 -0.562917,0.363125 z M 82.423757,69.540305 c 0.190995,-0.07643 0.419198,-0.06703 0.507119,0.02088 0.08792,0.08792 -0.06835,0.150452 -0.347265,0.138964 -0.308227,-0.0127 -0.37092,-0.07539 -0.159854,-0.159851 z m 2.232422,-0.0016 c 0.254662,-0.06655 0.671381,-0.06655 0.926042,0 0.254661,0.06655 0.0463,0.121001 -0.463021,0.121001 -0.509323,0 -0.717682,-0.05445 -0.463021,-0.121001 z M 162.34378,61.84969 c -0.3291,-0.419645 -0.31974,-0.429003 0.0999,-0.0999 0.44073,0.345644 0.58089,0.562917 0.36313,0.562917 -0.055,0 -0.2633,-0.208359 -0.46303,-0.463021 z M 49.665033,52.952398 c 0,-0.05494 0.208359,-0.2633 0.463021,-0.463021 0.419644,-0.329107 0.429002,-0.319749 0.09989,0.0999 -0.345643,0.44073 -0.562915,0.580888 -0.562915,0.363125 z m 118.375907,-3.670416 -0.50403,-0.595313 0.59531,0.504028 c 0.32742,0.277216 0.59532,0.545106 0.59532,0.595313 0,0.211733 -0.21294,0.05542 -0.6866,-0.504028 z M 56.147325,46.437711 c 0.26339,-0.291042 0.538421,-0.529167 0.611182,-0.529167 0.07276,0 -0.08321,0.238125 -0.346599,0.529167 -0.26339,0.291041 -0.538422,0.529166 -0.611182,0.529166 -0.07276,0 0.08321,-0.238125 0.346599,-0.529166 z M 107.82376,38.31947 c 0.19099,-0.07643 0.4192,-0.06703 0.50712,0.02089 0.0879,0.08792 -0.0684,0.150453 -0.34727,0.138964 -0.30823,-0.01269 -0.37092,-0.07539 -0.15985,-0.159852 z m 5.29166,0 c 0.191,-0.07643 0.41921,-0.06703 0.50712,0.02089 0.0879,0.08792 -0.0683,0.150453 -0.34726,0.138964 -0.30823,-0.01269 -0.37092,-0.07539 -0.15986,-0.159852 z m -5.55625,-12.7 c 0.191,-0.07643 0.41921,-0.06703 0.50712,0.02089 0.0879,0.08792 -0.0683,0.150453 -0.34726,0.138964 -0.30823,-0.0127 -0.37092,-0.07539 -0.15986,-0.159852 z m 5.8043,0.0055 c 0.1819,-0.0734 0.47956,-0.0734 0.66146,0 0.1819,0.0734 0.0331,0.133452 -0.33073,0.133452 -0.3638,0 -0.51263,-0.06005 -0.33073,-0.133452 z"
       style="fill:#373737;stroke-width:0.26458335" />
    <path
       inkscape:connector-curvature="0"
       id="path10193"
       d="m 102.79667,186.22156 c 0.191,-0.0764 0.41921,-0.067 0.50712,0.0209 0.0879,0.0879 -0.0684,0.15046 -0.34726,0.13897 -0.30823,-0.0127 -0.37092,-0.0754 -0.15986,-0.15985 z m 4.8819,-12.17996 c 0.40218,-0.0608 0.99749,-0.0592 1.32291,0.004 0.32543,0.0628 -0.004,0.11256 -0.73124,0.11058 -0.7276,-0.002 -0.99385,-0.0534 -0.59167,-0.11419 z m 5.16047,-0.002 c 0.47555,-0.0589 1.18993,-0.0577 1.5875,0.003 0.39758,0.0604 0.008,0.10855 -0.86463,0.10707 -0.87313,-0.002 -1.19842,-0.0509 -0.72287,-0.10977 z m 52.05204,-8.01037 c 0.26339,-0.29104 0.53842,-0.52917 0.61118,-0.52917 0.0728,0 -0.0832,0.23813 -0.3466,0.52917 -0.26339,0.29104 -0.53842,0.52917 -0.61118,0.52917 -0.0728,0 0.0832,-0.23813 0.3466,-0.52917 z m -0.39688,-18.09156 c 0,-0.0549 0.20836,-0.2633 0.46302,-0.46302 0.41965,-0.32911 0.42901,-0.31975 0.0999,0.0999 -0.34565,0.44073 -0.56292,0.58089 -0.56292,0.36313 z m -38.89375,-25.4 c 0,-0.0549 0.20836,-0.2633 0.46302,-0.46302 0.41965,-0.32911 0.42901,-0.31975 0.0999,0.0999 -0.34565,0.44073 -0.56292,0.58089 -0.56292,0.36313 z m -39.192083,-4.33188 c -0.329108,-0.41964 -0.319749,-0.429 0.0999,-0.0999 0.254661,0.19972 0.463021,0.40808 0.463021,0.46302 0,0.21776 -0.217274,0.0776 -0.562917,-0.36313 z m 18.785413,-0.79375 c -0.3291,-0.41964 -0.31975,-0.429 0.0999,-0.0999 0.44073,0.34564 0.58089,0.56291 0.36312,0.56291 -0.0549,0 -0.2633,-0.20836 -0.46302,-0.46302 z m 86.3297,-5.35781 c 0,-0.3638 0.06,-0.51263 0.13345,-0.33073 0.0734,0.1819 0.0734,0.47956 0,0.66146 -0.0734,0.1819 -0.13345,0.0331 -0.13345,-0.33073 z M 29.641385,110.2023 c 0,-0.94589 0.04802,-1.33284 0.106713,-0.8599 0.05869,0.47294 0.05869,1.24685 0,1.71979 -0.05869,0.47294 -0.106713,0.086 -0.106713,-0.85989 z m 162.125785,-1.74184 c 0.0127,-0.30823 0.0754,-0.37092 0.15986,-0.15986 0.0764,0.191 0.067,0.4192 -0.0209,0.50712 -0.0879,0.0879 -0.15045,-0.0684 -0.13896,-0.34726 z m 0,-4.49792 c 0.0127,-0.30823 0.0754,-0.37092 0.15986,-0.15985 0.0764,0.19099 0.067,0.4192 -0.0209,0.50711 -0.0879,0.0879 -0.15045,-0.0683 -0.13896,-0.34726 z M 29.623422,101.86792 c 0.0029,-0.58208 0.05712,-0.78905 0.120407,-0.45994 0.06329,0.32912 0.06088,0.80537 -0.0053,1.05834 -0.06622,0.25296 -0.118003,-0.0163 -0.115067,-0.5984 z m 161.909858,-1.5875 c 0.005,-0.436562 0.0647,-0.583126 0.13178,-0.325694 0.0671,0.257434 0.0627,0.614624 -0.01,0.793754 -0.0725,0.17913 -0.12736,-0.0315 -0.12197,-0.46806 z M 29.84217,98.935456 c 0.0127,-0.308227 0.07539,-0.37092 0.159853,-0.159854 0.07643,0.190995 0.06703,0.419201 -0.02089,0.507119 -0.08792,0.08792 -0.150453,-0.06835 -0.138964,-0.347265 z m 64.00828,-2.59139 c 0,-0.05494 0.20836,-0.2633 0.463021,-0.463021 0.419645,-0.329107 0.429004,-0.319749 0.0999,0.0999 -0.345643,0.44073 -0.562917,0.580887 -0.562917,0.363125 z m 1.322917,-1.5875 c 0,-0.05494 0.208359,-0.2633 0.463021,-0.463021 0.419645,-0.329107 0.429003,-0.319749 0.0999,0.0999 -0.345644,0.44073 -0.562917,0.580887 -0.562917,0.363125 z M 83.338298,69.537691 c 0.257431,-0.06708 0.614619,-0.06267 0.79375,0.0098 0.179131,0.07248 -0.03149,0.127362 -0.468056,0.12197 -0.436563,-0.0054 -0.583126,-0.06469 -0.325694,-0.131773 z M 64.746283,55.862815 c 0,-0.05494 0.208359,-0.2633 0.463021,-0.463021 0.419645,-0.329107 0.429003,-0.319749 0.0999,0.0999 -0.345644,0.44073 -0.562917,0.580888 -0.562917,0.363125 z m 5.291667,-4.233332 c 0,-0.05494 0.208359,-0.263302 0.463021,-0.463021 0.419645,-0.329108 0.429003,-0.319749 0.0999,0.09989 -0.345644,0.440729 -0.562917,0.580887 -0.562917,0.363126 z m 34.1974,-25.747073 c 0.25466,-0.06655 0.67138,-0.06655 0.92604,0 0.25466,0.06655 0.0463,0.121 -0.46302,0.121 -0.50933,0 -0.71769,-0.05445 -0.46302,-0.121 z m 11.91128,-9.71e-4 c 0.25743,-0.06708 0.61462,-0.06267 0.79375,0.0098 0.17913,0.07248 -0.0315,0.127362 -0.46805,0.12197 -0.43657,-0.0054 -0.58313,-0.06469 -0.3257,-0.131773 z m -7.79371,-0.261969 c 0.191,-0.07643 0.41921,-0.06703 0.50712,0.02089 0.0879,0.08792 -0.0683,0.150453 -0.34726,0.138964 -0.30823,-0.0127 -0.37092,-0.07539 -0.15986,-0.159852 z m 4.23334,0 c 0.19099,-0.07643 0.4192,-0.06703 0.50712,0.02089 0.0879,0.08792 -0.0684,0.150453 -0.34727,0.138964 -0.30823,-0.0127 -0.37092,-0.07539 -0.15985,-0.159852 z"
       style="fill:#272727;stroke-width:0.26458335" />
    <path
       inkscape:connector-curvature="0"
       id="path10191"
       d="m 105.29368,186.47414 c 0.5457,-0.0571 1.43867,-0.0571 1.98437,0 0.54571,0.0571 0.0992,0.10378 -0.99218,0.10378 -1.09141,0 -1.53789,-0.0467 -0.99219,-0.10378 z m 9.65729,0.006 c 0.32742,-0.0631 0.8632,-0.0631 1.19063,0 0.32742,0.0631 0.0595,0.11466 -0.59532,0.11466 -0.65484,0 -0.92273,-0.0516 -0.59531,-0.11466 z m 2.91042,-0.25309 c 0.1819,-0.0734 0.47956,-0.0734 0.66146,0 0.1819,0.0734 0.0331,0.13345 -0.33073,0.13345 -0.3638,0 -0.51263,-0.0601 -0.33073,-0.13345 z m 8.99142,-1.18052 c 0.17948,-0.18082 0.39297,-0.26212 0.47443,-0.18065 0.0815,0.0815 -0.0654,0.2294 -0.32631,0.32876 -0.37709,0.14359 -0.40748,0.1132 -0.14812,-0.14811 z m 10.58333,-2.91042 c 0.17948,-0.18082 0.39297,-0.26211 0.47444,-0.18065 0.0815,0.0815 -0.0654,0.22941 -0.32632,0.32876 -0.37709,0.14359 -0.40748,0.1132 -0.14812,-0.14811 z m -79.039857,-1.39406 c 0,-0.0572 0.184777,-0.17489 0.410617,-0.26155 0.235458,-0.0904 0.341662,-0.046 0.248968,0.10398 -0.155379,0.25141 -0.659585,0.37186 -0.659585,0.15757 z m 82.549997,0.003 c 0,-0.0558 0.23829,-0.16375 0.52954,-0.23991 0.29124,-0.0762 0.46281,-0.0305 0.38126,0.10143 -0.14242,0.23034 -0.9108,0.34716 -0.9108,0.13838 z M 152.58795,175.19 c 0,-0.0549 0.20836,-0.2633 0.46302,-0.46302 0.41965,-0.32911 0.42901,-0.31975 0.0999,0.0999 -0.34565,0.44064 -0.56292,0.58079 -0.56292,0.36303 z m -47.16198,-1.14517 c 0.32742,-0.0631 0.8632,-0.0631 1.19063,0 0.32742,0.0631 0.0595,0.11467 -0.59532,0.11467 -0.65484,0 -0.92273,-0.0516 -0.59531,-0.11467 z m 10.05725,-5.2e-4 c 0.32912,-0.0633 0.80537,-0.0609 1.05834,0.005 0.25296,0.0662 -0.0163,0.118 -0.5984,0.11507 -0.58208,-0.003 -0.78905,-0.0571 -0.45994,-0.12041 z m -20.359462,-1.58112 c 0.190994,-0.0764 0.4192,-0.067 0.507119,0.0209 0.08792,0.0879 -0.06835,0.15045 -0.347266,0.13896 -0.308226,-0.0127 -0.370919,-0.0754 -0.159853,-0.15985 z m 35.768362,-1.24613 c 0,-0.0572 0.18477,-0.17489 0.41062,-0.26155 0.23545,-0.0904 0.34166,-0.046 0.24896,0.10398 -0.15538,0.25141 -0.65958,0.37186 -0.65958,0.15757 z m -97.102088,-1.73248 c 0,-0.13693 0.117699,-0.32171 0.261553,-0.41062 0.149982,-0.0927 0.194339,0.0135 0.103984,0.24897 -0.175892,0.45837 -0.365537,0.54223 -0.365537,0.16165 z m 13.907637,-1.94526 c 0.09936,-0.26093 0.247304,-0.40778 0.328765,-0.32632 0.08146,0.0815 1.68e-4,0.29496 -0.180653,0.47444 -0.261307,0.25936 -0.291698,0.22897 -0.148112,-0.14812 z m 31.734863,-0.71316 c -0.09269,-0.14998 0.01352,-0.19434 0.248967,-0.10398 0.45837,0.17589 0.542235,0.36553 0.16165,0.36553 -0.136932,0 -0.321712,-0.1177 -0.410617,-0.26155 z m -30.296666,-3.69158 c 0,-0.13693 0.117699,-0.32171 0.261553,-0.41062 0.149982,-0.0927 0.194338,0.0135 0.103984,0.24897 -0.175893,0.45837 -0.365537,0.54223 -0.365537,0.16165 z M 178.51712,150.17 c 0,-0.13694 0.1177,-0.32172 0.26155,-0.41062 0.14998,-0.0927 0.19434,0.0135 0.10399,0.24897 -0.1759,0.45836 -0.36554,0.54223 -0.36554,0.16165 z m -52.7017,-7.34011 c 0.191,-0.0764 0.41921,-0.067 0.50712,0.0209 0.0879,0.0879 -0.0684,0.15045 -0.34726,0.13896 -0.30823,-0.0127 -0.37092,-0.0754 -0.15986,-0.15985 z m -4.58059,-1.40676 c -0.43138,-0.18537 -0.44649,-0.23083 -0.0818,-0.24599 0.24608,-0.0102 0.521,0.10047 0.61093,0.24599 0.18803,0.30424 0.17884,0.30424 -0.52916,0 z m -3.83646,-1.32292 c -0.23847,-0.15411 -0.2711,-0.2581 -0.0818,-0.26053 0.17331,-0.002 0.3887,0.11501 0.47863,0.26053 0.20302,0.32849 0.11142,0.32849 -0.39687,0 z m -68.141092,-3.45718 c -0.09592,-0.15521 -0.117655,-0.33893 -0.0483,-0.40829 0.06936,-0.0694 0.196603,0.0576 0.282774,0.28219 0.178907,0.46622 0.02642,0.54823 -0.234473,0.1261 z m 139.334892,-8.60341 c 0.0127,-0.30822 0.0754,-0.37092 0.15986,-0.15985 0.0764,0.19099 0.067,0.4192 -0.0209,0.50712 -0.0879,0.0879 -0.15045,-0.0683 -0.13896,-0.34727 z m -92.658803,-0.30868 c -0.329107,-0.41964 -0.319749,-0.429 0.0999,-0.0999 0.44073,0.34564 0.580887,0.56291 0.363125,0.56291 -0.05494,0 -0.2633,-0.20836 -0.463021,-0.46302 z m -63.581532,-0.25317 c -0.143585,-0.37708 -0.113194,-0.40747 0.148112,-0.14811 0.180821,0.17947 0.262115,0.39297 0.180654,0.47443 -0.08146,0.0815 -0.229407,-0.0654 -0.328766,-0.32632 z m 12.407527,-2.21183 c -0.09592,-0.1552 -0.117656,-0.33893 -0.0483,-0.40828 0.06935,-0.0694 0.196603,0.0576 0.282773,0.28218 0.178907,0.46623 0.02642,0.54824 -0.234472,0.1261 z m 47.875325,-0.57771 -0.504028,-0.59531 0.595312,0.50403 c 0.559446,0.47366 0.715762,0.6866 0.504029,0.6866 -0.05021,0 -0.318098,-0.26789 -0.595313,-0.59532 z m 31.378263,-0.29833 c 0,-0.0549 0.20836,-0.2633 0.46302,-0.46302 0.41965,-0.32911 0.42901,-0.31975 0.0999,0.0999 -0.34565,0.44073 -0.56292,0.58089 -0.56292,0.36313 z m -32.701179,-1.02458 -0.504029,-0.59532 0.595312,0.50403 c 0.559446,0.47366 0.715762,0.6866 0.504029,0.6866 -0.05021,0 -0.318098,-0.26789 -0.595312,-0.59531 z m -1.979264,-1.98438 -0.641432,-0.7276 0.727604,0.64143 c 0.680056,0.59952 0.84894,0.81378 0.641432,0.81378 -0.04739,0 -0.374814,-0.32743 -0.727604,-0.72761 z m 100.847163,0.30868 c 0.0127,-0.30822 0.0754,-0.37092 0.15986,-0.15985 0.0764,0.19099 0.067,0.4192 -0.0209,0.50712 -0.0879,0.0879 -0.15045,-0.0683 -0.13896,-0.34727 z M 30.900504,120.89587 c 0.01269,-0.30822 0.07539,-0.37092 0.159852,-0.15985 0.07643,0.19099 0.06703,0.4192 -0.02089,0.50712 -0.08792,0.0879 -0.150452,-0.0683 -0.138964,-0.34727 z m 146.843756,-0.79375 c 0.0127,-0.30822 0.0754,-0.37092 0.15985,-0.15985 0.0764,0.19099 0.067,0.4192 -0.0209,0.50712 -0.0879,0.0879 -0.15045,-0.0683 -0.13896,-0.34727 z m -48.17506,-2.57428 c 0,-0.0455 0.38695,-0.43249 0.8599,-0.8599 l 0.85989,-0.7771 -0.7771,0.85989 c -0.72437,0.80155 -0.94269,0.98151 -0.94269,0.77711 z m 2.84427,-1.67994 c 0.1819,-0.0734 0.47956,-0.0734 0.66146,0 0.1819,0.0734 0.0331,0.13345 -0.33073,0.13345 -0.3638,0 -0.51263,-0.0601 -0.33073,-0.13345 z m 58.82454,-1.83119 c 0.0127,-0.30823 0.0754,-0.37092 0.15985,-0.15986 0.0764,0.191 0.067,0.4192 -0.0209,0.50712 -0.0879,0.0879 -0.15045,-0.0683 -0.13896,-0.34726 z m -91.586753,-1.6316 -0.641432,-0.72761 0.727605,0.64144 c 0.68006,0.59951 0.84894,0.81377 0.64143,0.81377 -0.0474,0 -0.37481,-0.32742 -0.727603,-0.7276 z m 91.902503,-1.91823 c 0,-0.65485 0.0516,-0.92274 0.11467,-0.59531 0.0631,0.32742 0.0631,0.8632 0,1.19062 -0.0631,0.32742 -0.11467,0.0595 -0.11467,-0.59531 z m -12.39977,-4.23333 c 0,-2.4011 0.0401,-3.38336 0.0891,-2.18282 0.049,1.20055 0.049,3.16508 0,4.36563 -0.049,1.20054 -0.0891,0.21828 -0.0891,-2.18281 z M 29.656756,105.70438 c 0,-1.67349 0.04296,-2.3581 0.09547,-1.52136 0.05251,0.83675 0.05251,2.20597 0,3.04271 -0.05251,0.83675 -0.09547,0.15214 -0.09547,-1.52135 z m 48.997162,2.19422 c -0.143584,-0.37708 -0.113194,-0.40747 0.148114,-0.14811 0.180822,0.17948 0.262115,0.39297 0.180652,0.47443 -0.08146,0.0815 -0.229407,-0.0654 -0.328766,-0.32632 z m 17.014865,-0.27599 c -0.329107,-0.41965 -0.319748,-0.42901 0.0999,-0.0999 0.440729,0.34565 0.580887,0.56292 0.363124,0.56292 -0.05494,0 -0.2633,-0.20836 -0.463021,-0.46302 z m 96.119277,-0.0661 c 0,-0.3638 0.0601,-0.51263 0.13345,-0.33073 0.0734,0.1819 0.0734,0.47956 0,0.66146 -0.0734,0.1819 -0.13345,0.0331 -0.13345,-0.33073 z m -149.754168,-0.7938 c 0,-0.3638 0.06005,-0.51263 0.133452,-0.33073 0.0734,0.1819 0.0734,0.47956 0,0.66146 -0.0734,0.1819 -0.133452,0.0331 -0.133452,-0.33073 z m -0.02089,-1.21267 c 0.01269,-0.30823 0.07539,-0.37092 0.159852,-0.15985 0.07643,0.19099 0.06703,0.4192 -0.02089,0.50711 -0.08792,0.0879 -0.150453,-0.0683 -0.138964,-0.34726 z m 149.775058,-0.63941 c 0,-0.3638 0.0601,-0.51263 0.13345,-0.33073 0.0734,0.1819 0.0734,0.47956 0,0.66146 -0.0734,0.1819 -0.13345,0.0331 -0.13345,-0.33073 z m -0.23964,-3.04271 c 0.003,-0.58208 0.0571,-0.78905 0.12041,-0.45994 0.0633,0.32912 0.0609,0.80537 -0.005,1.05834 -0.0662,0.25296 -0.11801,-0.0163 -0.11507,-0.5984 z M 91.295919,100.53359 c -0.08617,-0.22456 -0.09756,-0.4674 -0.02529,-0.539658 0.07225,-0.07226 0.194882,0.111468 0.2725,0.408288 0.164875,0.63048 -0.01831,0.72784 -0.2472,0.13137 z m 99.942091,-2.127301 c 0.0127,-0.308226 0.0754,-0.370919 0.15985,-0.159853 0.0764,0.190995 0.067,0.4192 -0.0209,0.507119 -0.0879,0.08792 -0.15045,-0.06835 -0.13896,-0.347266 z M 30.900504,91.262539 c 0.01269,-0.308226 0.07539,-0.370919 0.159852,-0.159853 0.07643,0.190994 0.06703,0.419198 -0.02089,0.507119 -0.08792,0.08792 -0.150452,-0.06835 -0.138964,-0.347266 z M 190.17967,90.733372 c 0.0127,-0.308226 0.0754,-0.370919 0.15986,-0.159853 0.0764,0.190995 0.067,0.419198 -0.0209,0.507119 -0.0879,0.08792 -0.15045,-0.06835 -0.13896,-0.347266 z M 71.579016,83.830168 c 0.112905,-0.553762 0.179437,-0.620294 0.256542,-0.25654 0.05726,0.270118 -0.01135,0.606568 -0.15244,0.747665 -0.165666,0.165666 -0.202541,-0.0083 -0.104102,-0.491125 z m 7.454767,-12.621519 c 0,-0.05494 0.20836,-0.263301 0.463021,-0.463021 0.419645,-0.329108 0.429004,-0.319749 0.0999,0.0999 -0.345643,0.440729 -0.562917,0.580887 -0.562917,0.363125 z m -23.01875,-6.085417 c 0,-0.05494 0.208359,-0.2633 0.463021,-0.463021 0.419645,-0.329107 0.429003,-0.319749 0.0999,0.0999 -0.345644,0.44073 -0.562917,0.580887 -0.562917,0.363125 z m 2.38125,-2.910417 c 0,-0.05494 0.208359,-0.2633 0.463021,-0.463021 0.419645,-0.329107 0.429003,-0.319749 0.0999,0.0999 -0.345644,0.44073 -0.562917,0.580888 -0.562917,0.363125 z M 43.728919,60.647654 c 0.09936,-0.260938 0.247303,-0.407781 0.328765,-0.326319 0.08146,0.08146 1.68e-4,0.294955 -0.180653,0.474432 -0.261307,0.259361 -0.291698,0.228971 -0.148112,-0.148113 z m 19.429864,-3.461922 c 0,-0.05494 0.208359,-0.263301 0.463021,-0.463021 0.419645,-0.329108 0.429003,-0.319749 0.0999,0.0999 -0.345644,0.440729 -0.562917,0.580887 -0.562917,0.363125 z m 2.778125,-2.545938 c 0.26339,-0.291041 0.538422,-0.529166 0.611182,-0.529166 0.07276,0 -0.08321,0.238125 -0.346599,0.529166 -0.26339,0.291042 -0.538421,0.529167 -0.611182,0.529167 -0.07276,0 0.08321,-0.238125 0.346599,-0.529167 z M 172.39795,54.176773 c -0.32911,-0.419645 -0.31975,-0.429003 0.0999,-0.0999 0.25466,0.199721 0.46302,0.40808 0.46302,0.463021 0,0.217763 -0.21727,0.0776 -0.56292,-0.363125 z m -2.91042,-3.175 c -0.3291,-0.419644 -0.31974,-0.429002 0.0999,-0.09989 0.44073,0.345643 0.58089,0.562915 0.36313,0.562915 -0.0549,0 -0.2633,-0.208359 -0.46303,-0.463021 z m -3.175,-3.175 c -0.3291,-0.419644 -0.31974,-0.429002 0.0999,-0.09989 0.25466,0.199719 0.46302,0.408078 0.46302,0.46302 0,0.217761 -0.21727,0.0776 -0.56292,-0.363126 z m -76.166246,-6.52013 c 0,-0.05719 0.184777,-0.17489 0.410617,-0.261553 0.235458,-0.09035 0.341662,-0.046 0.248968,0.103985 -0.155379,0.251408 -0.659585,0.371858 -0.659585,0.157568 z M 157.3167,40.41844 c -0.32911,-0.419644 -0.31975,-0.429003 0.0999,-0.09989 0.44073,0.345644 0.58088,0.562916 0.36312,0.562916 -0.0549,0 -0.2633,-0.20836 -0.46302,-0.463021 z m -32.11312,-0.595313 c -0.43138,-0.185369 -0.44649,-0.230827 -0.0818,-0.245987 0.24608,-0.01023 0.521,0.100466 0.61093,0.245987 0.18803,0.304239 0.17884,0.304239 -0.52916,0 z m -19.50994,-1.510046 c 0.32912,-0.06329 0.80537,-0.06088 1.05833,0.0053 0.25297,0.06622 -0.0163,0.118004 -0.59839,0.115067 -0.58209,-0.0029 -0.78906,-0.05712 -0.45994,-0.120406 z m 8.86046,0.0047 c 0.25466,-0.06655 0.67138,-0.06655 0.92604,0 0.25466,0.06655 0.0463,0.121 -0.46302,0.121 -0.50933,0 -0.71768,-0.05445 -0.46302,-0.121 z m -4.49792,-0.271708 c 0.40018,-0.06062 1.05503,-0.06062 1.45521,0 0.40018,0.06062 0.0728,0.110222 -0.72761,0.110222 -0.80036,0 -1.12778,-0.0496 -0.7276,-0.110222 z m -25.995313,-7.85193 c 0,-0.05719 0.184777,-0.17489 0.410617,-0.261553 0.235458,-0.09035 0.341662,-0.046 0.248968,0.103984 -0.155379,0.251408 -0.659585,0.371858 -0.659585,0.157569 z M 94.859174,27.20697 c 0.190995,-0.07643 0.419201,-0.06703 0.507119,0.02089 0.08792,0.08792 -0.06835,0.150453 -0.347265,0.138964 -0.308227,-0.0127 -0.37092,-0.07539 -0.159854,-0.159852 z m 31.485416,0 c 0.191,-0.07643 0.4192,-0.06703 0.50712,0.02089 0.0879,0.08792 -0.0683,0.150453 -0.34727,0.138964 -0.30822,-0.0127 -0.37091,-0.07539 -0.15985,-0.159852 z m -23.8125,-1.058334 c 0.191,-0.07643 0.4192,-0.06703 0.50712,0.02089 0.0879,0.08792 -0.0683,0.150453 -0.34727,0.138965 -0.30822,-0.0127 -0.37091,-0.07539 -0.15985,-0.159853 z m 15.85847,0.0055 c 0.1819,-0.0734 0.47955,-0.0734 0.66145,0 0.1819,0.0734 0.0331,0.133453 -0.33073,0.133453 -0.3638,0 -0.51263,-0.06005 -0.33072,-0.133453 z m -12.29949,-0.279214 c 0.40218,-0.06082 0.99749,-0.05919 1.32291,0.0036 0.32543,0.0628 -0.004,0.11256 -0.73124,0.110574 -0.7276,-0.002 -0.99385,-0.05337 -0.59167,-0.114185 z m 8.73264,0.0065 c 0.25744,-0.06708 0.61462,-0.06267 0.79375,0.0098 0.17914,0.07248 -0.0315,0.127361 -0.46805,0.121969 -0.43656,-0.0054 -0.58313,-0.06469 -0.3257,-0.131773 z m -5.69357,-0.256458 c 0.1819,-0.0734 0.47956,-0.0734 0.66146,0 0.1819,0.0734 0.0331,0.133452 -0.33073,0.133452 -0.3638,0 -0.51263,-0.06005 -0.33073,-0.133452 z m 2.66237,-0.0055 c 0.19099,-0.07643 0.4192,-0.06703 0.50712,0.02089 0.0879,0.08792 -0.0684,0.150453 -0.34727,0.138964 -0.30823,-0.0127 -0.37092,-0.07539 -0.15985,-0.159852 z"
       style="fill:#161616;stroke-width:0.26458335" />
    <path
       inkscape:connector-curvature="0"
       id="path10189"
       d="m 12.737117,202.81192 c 0.0036,-0.008 0.01661,-0.0415 0.02883,-0.0752 0.01222,-0.0337 0.02662,-0.0658 0.03201,-0.0714 0.0054,-0.006 0.02037,-0.0424 0.0333,-0.0816 0.01293,-0.0393 0.02749,-0.0737 0.03237,-0.0765 0.0049,-0.003 0.02087,-0.0373 0.03554,-0.0765 0.01467,-0.0393 0.06184,-0.15183 0.104815,-0.25007 0.04298,-0.0982 0.09009,-0.21077 0.104695,-0.25007 0.01461,-0.0393 0.0307,-0.076 0.03577,-0.0816 0.0051,-0.006 0.03675,-0.0791 0.07041,-0.16331 0.03366,-0.0842 0.06648,-0.16229 0.07293,-0.17351 0.01622,-0.0282 0.07027,-0.15657 0.108873,-0.25853 l 0.03219,-0.085 -0.05402,-0.0783 c -0.02971,-0.0431 -0.06364,-0.0921 -0.07541,-0.10892 -0.01177,-0.0168 -0.0458,-0.0742 -0.07564,-0.12758 -0.02984,-0.0533 -0.06246,-0.11074 -0.0725,-0.12759 -0.02526,-0.0424 -0.104221,-0.22494 -0.121391,-0.28068 -0.0078,-0.0253 -0.01947,-0.0551 -0.02597,-0.0663 -0.01,-0.0172 -0.03999,-0.12632 -0.08988,-0.32661 -0.04332,-0.17392 -0.04804,-0.72026 -0.008,-0.92882 0.02443,-0.12732 0.08768,-0.36637 0.09858,-0.37255 0.005,-0.003 0.01311,-0.0212 0.01814,-0.0408 0.01388,-0.0542 0.111189,-0.27795 0.13084,-0.30082 0.0095,-0.0111 0.0173,-0.0265 0.0173,-0.0343 0,-0.0141 0.151845,-0.26084 0.214593,-0.34872 0.0495,-0.0693 0.221005,-0.2746 0.272637,-0.32632 0.07323,-0.0734 0.08352,-0.0833 0.165977,-0.16044 0.08736,-0.0817 0.274405,-0.23147 0.367296,-0.29406 0.03333,-0.0224 0.06721,-0.0454 0.0753,-0.051 0.03897,-0.0271 0.2093,-0.13389 0.227801,-0.14289 0.01154,-0.006 0.06363,-0.0328 0.115772,-0.0604 0.106285,-0.0562 0.180724,-0.0935 0.244368,-0.12253 0.07954,-0.0362 0.350652,-0.1412 0.401363,-0.15543 0.02764,-0.008 0.05652,-0.0182 0.06419,-0.0232 0.0077,-0.005 0.05728,-0.0194 0.110233,-0.0319 0.05296,-0.0125 0.102064,-0.0264 0.109125,-0.0307 0.0071,-0.004 0.05039,-0.0153 0.09629,-0.0245 0.0459,-0.009 0.095,-0.021 0.109125,-0.0265 0.03577,-0.0138 0.308006,-0.0587 0.462178,-0.0762 0.07061,-0.008 0.222937,-0.0194 0.338503,-0.0253 0.115566,-0.006 0.214817,-0.013 0.220556,-0.0158 0.01555,-0.008 0.712513,0.0421 0.733356,0.0524 0.0058,0.003 0.0207,0.007 0.03309,0.009 0.226021,0.0348 0.318952,0.0511 0.324214,0.0568 0.0035,0.004 0.04975,0.0151 0.102706,0.0252 0.05296,0.01 0.102064,0.0216 0.109125,0.0257 0.0071,0.004 0.05328,0.0179 0.102706,0.0306 0.04943,0.0127 0.09565,0.0265 0.102706,0.0307 0.0071,0.004 0.02728,0.0111 0.04493,0.0154 0.01765,0.004 0.07918,0.0255 0.136727,0.0472 0.05755,0.0217 0.110505,0.0394 0.117684,0.0394 0.0072,0 0.01498,0.004 0.01733,0.009 0.0024,0.005 0.03113,0.0199 0.06394,0.0332 0.146014,0.0592 0.184677,0.0756 0.190685,0.0806 0.0035,0.003 0.06708,0.0371 0.14122,0.0759 0.288402,0.15088 0.567743,0.34587 0.795973,0.55562 0.03884,0.0357 0.08216,0.0755 0.09629,0.0884 0.01412,0.0129 0.04879,0.0496 0.07703,0.0816 0.02825,0.0319 0.05713,0.0632 0.06419,0.0696 0.0207,0.0187 0.137945,0.16272 0.196219,0.24109 0.03178,0.0427 0.195348,0.30263 0.195348,0.31038 0,0.003 0.01372,0.0297 0.03048,0.0593 0.01676,0.0296 0.04064,0.0791 0.05305,0.11002 0.01242,0.0309 0.02668,0.0607 0.03171,0.0663 0.005,0.006 0.01899,0.0401 0.03104,0.0765 0.01205,0.0365 0.02736,0.0755 0.03402,0.0867 0.01711,0.0288 0.07636,0.25721 0.09667,0.37255 0.01787,0.10151 0.04964,0.39787 0.04924,0.45931 -4.36e-4,0.0665 -0.032,0.36175 -0.0491,0.4593 -0.02111,0.12044 -0.08487,0.36057 -0.09756,0.36745 -0.0052,0.003 -0.0136,0.0212 -0.0187,0.0408 -0.01314,0.0506 -0.09443,0.2399 -0.130497,0.30396 -0.01669,0.0296 -0.03034,0.0563 -0.03034,0.0593 0,0.017 -0.216587,0.34679 -0.247387,0.3767 -0.0058,0.006 -0.03581,0.0424 -0.06672,0.0817 -0.03092,0.0393 -0.06416,0.0783 -0.07387,0.0868 -0.0097,0.008 -0.02685,0.027 -0.03808,0.0413 -0.01123,0.0143 -0.05016,0.0556 -0.08651,0.0919 -0.265672,0.26486 -0.574215,0.49177 -0.893216,0.65691 -0.06355,0.0329 -0.129987,0.0677 -0.14764,0.0773 -0.01765,0.01 -0.05232,0.0257 -0.07703,0.0358 -0.02471,0.0101 -0.04782,0.0213 -0.05135,0.0249 -0.0097,0.01 -0.251882,0.10282 -0.268216,0.10282 -0.0078,0 -0.01423,0.004 -0.01423,0.008 0,0.004 -0.04044,0.0192 -0.08987,0.0328 -0.04943,0.0136 -0.08987,0.0278 -0.08987,0.0314 0,0.004 -0.03611,0.0147 -0.08024,0.0244 -0.04413,0.01 -0.08602,0.0213 -0.09308,0.0258 -0.0071,0.004 -0.05906,0.0178 -0.115545,0.0298 -0.05649,0.012 -0.111904,0.0259 -0.123146,0.0308 -0.01124,0.005 -0.0719,0.0164 -0.134802,0.0255 -0.0629,0.009 -0.125915,0.0208 -0.140037,0.026 -0.03301,0.0122 -0.278431,0.0361 -0.5349,0.0521 -0.15689,0.01 -0.254271,0.01 -0.44292,4.7e-4 -0.273309,-0.0136 -0.552669,-0.0385 -0.583212,-0.0519 -0.01124,-0.005 -0.07112,-0.0165 -0.13305,-0.0257 -0.06193,-0.009 -0.133617,-0.0232 -0.159295,-0.0309 -0.02568,-0.008 -0.08424,-0.0221 -0.130135,-0.0317 -0.0459,-0.01 -0.08922,-0.0208 -0.09629,-0.0248 -0.0071,-0.004 -0.04461,-0.0153 -0.08345,-0.025 -0.07748,-0.0195 -0.125087,-0.036 -0.349744,-0.12151 -0.08291,-0.0315 -0.165794,-0.0573 -0.184179,-0.0573 -0.03587,0 -0.170239,0.0283 -0.191439,0.0404 -0.0071,0.004 -0.05328,0.0156 -0.102706,0.0257 -0.04943,0.0101 -0.09565,0.0217 -0.102706,0.0258 -0.0071,0.004 -0.05328,0.0156 -0.102706,0.0257 -0.04943,0.0101 -0.104311,0.0239 -0.121963,0.0305 -0.01765,0.007 -0.06965,0.0201 -0.115545,0.03 -0.0459,0.01 -0.08922,0.0215 -0.09629,0.0257 -0.0071,0.004 -0.03017,0.0108 -0.05135,0.0146 -0.05451,0.01 -0.32498,0.0766 -0.378728,0.0936 -0.02471,0.008 -0.09085,0.0241 -0.146965,0.036 -0.05612,0.012 -0.111001,0.0256 -0.121963,0.0302 -0.01096,0.005 -0.08926,0.0252 -0.173992,0.0456 -0.08473,0.0204 -0.206054,0.0503 -0.269603,0.0663 -0.176615,0.0446 -0.178123,0.0449 -0.170582,0.029 z m 4.380619,-0.6308 c 0.02168,-0.005 0.102975,-0.015 0.180647,-0.0217 0.07767,-0.007 0.170107,-0.0184 0.205412,-0.026 0.03531,-0.008 0.114898,-0.0232 0.176872,-0.0345 0.06197,-0.0113 0.122635,-0.0251 0.134802,-0.0305 0.01217,-0.005 0.05101,-0.0166 0.08631,-0.0249 0.07973,-0.0187 0.267339,-0.0789 0.27606,-0.0887 0.0036,-0.004 0.03225,-0.0155 0.06377,-0.0255 0.03152,-0.01 0.09794,-0.0363 0.147602,-0.0583 0.12609,-0.056 0.134897,-0.0601 0.195952,-0.0914 0.02987,-0.0153 0.05827,-0.0278 0.06311,-0.0278 0.0048,0 0.01796,-0.007 0.02914,-0.016 0.01118,-0.009 0.07242,-0.0467 0.136083,-0.0842 0.154802,-0.0912 0.166613,-0.0994 0.353494,-0.24738 0.08905,-0.0705 0.196106,-0.16441 0.237901,-0.2087 0.04179,-0.0443 0.08899,-0.0918 0.104875,-0.10553 0.01589,-0.0137 0.02889,-0.0286 0.02889,-0.033 0,-0.004 0.008,-0.0143 0.01777,-0.0221 0.0098,-0.008 0.03018,-0.0322 0.04534,-0.0543 0.01516,-0.0221 0.04572,-0.0631 0.06791,-0.0912 0.06165,-0.078 0.195696,-0.29034 0.215851,-0.34192 0.0099,-0.0253 0.02172,-0.0482 0.02635,-0.051 0.01388,-0.008 0.09806,-0.22473 0.115201,-0.29599 0.0088,-0.0365 0.02058,-0.0711 0.02624,-0.0769 0.0092,-0.009 0.02009,-0.0691 0.06324,-0.34667 0.01629,-0.10478 0.01629,-0.31369 0,-0.41847 -0.0433,-0.27857 -0.05407,-0.3372 -0.06363,-0.34667 -0.0059,-0.006 -0.01464,-0.0312 -0.01948,-0.0565 -0.0095,-0.0496 -0.106632,-0.30475 -0.122382,-0.32151 -0.0053,-0.006 -0.01636,-0.0269 -0.02464,-0.0474 -0.01944,-0.048 -0.170535,-0.28601 -0.219398,-0.34559 -0.02072,-0.0253 -0.05253,-0.0666 -0.07068,-0.0919 -0.0378,-0.0526 -0.08255,-0.10287 -0.113436,-0.12743 -0.01171,-0.009 -0.02129,-0.0203 -0.02129,-0.0245 0,-0.004 -0.01011,-0.0165 -0.02247,-0.0275 -0.01236,-0.0109 -0.04557,-0.0428 -0.0738,-0.0708 -0.02823,-0.028 -0.06361,-0.0601 -0.07861,-0.0713 -0.015,-0.0112 -0.04678,-0.039 -0.07063,-0.0616 -0.05099,-0.0485 -0.221703,-0.17133 -0.342947,-0.24676 -0.04706,-0.0293 -0.09422,-0.0597 -0.104815,-0.0675 -0.01059,-0.008 -0.03181,-0.0194 -0.04714,-0.0258 -0.01534,-0.006 -0.03592,-0.0179 -0.04574,-0.0257 -0.0098,-0.008 -0.0406,-0.0241 -0.0684,-0.0363 -0.0278,-0.0122 -0.08232,-0.0377 -0.121159,-0.0567 -0.08573,-0.042 -0.359448,-0.14981 -0.430203,-0.1695 -0.02818,-0.008 -0.05412,-0.017 -0.05765,-0.0203 -0.01007,-0.009 -0.293823,-0.0791 -0.37231,-0.0914 -0.03884,-0.006 -0.08216,-0.0153 -0.09629,-0.0205 -0.03036,-0.0111 -0.127419,-0.0233 -0.372309,-0.0465 -0.210448,-0.02 -0.501499,-0.022 -0.674009,-0.005 -0.227184,0.0227 -0.391513,0.0434 -0.404405,0.0508 -0.0071,0.004 -0.05328,0.0134 -0.102706,0.0207 -0.0895,0.0132 -0.310094,0.0689 -0.387088,0.0977 -0.02225,0.008 -0.04463,0.0151 -0.04973,0.0151 -0.03998,0 -0.476547,0.1868 -0.622454,0.26634 -0.275828,0.15036 -0.559365,0.36366 -0.758501,0.57062 -0.15183,0.15779 -0.347985,0.41496 -0.383316,0.50254 -0.0085,0.021 -0.0203,0.0405 -0.0263,0.0435 -0.006,0.003 -0.02079,0.0294 -0.03286,0.0588 -0.01207,0.0294 -0.02612,0.0581 -0.03122,0.0637 -0.01422,0.0156 -0.09982,0.23597 -0.122915,0.31641 -0.04915,0.17115 -0.0639,0.26424 -0.08777,0.554 -0.0097,0.11762 0.04092,0.5395 0.07003,0.58372 0.0057,0.009 0.01992,0.057 0.03168,0.10751 0.01176,0.0505 0.02618,0.0965 0.03205,0.1022 0.0059,0.006 0.01774,0.0333 0.02638,0.0612 0.0086,0.028 0.026,0.0693 0.03858,0.0917 0.01258,0.0224 0.03194,0.0628 0.04302,0.0897 0.01108,0.0269 0.02839,0.059 0.03846,0.0714 0.01008,0.0124 0.02859,0.0433 0.04115,0.0685 0.03231,0.065 0.122739,0.19255 0.218728,0.30846 l 0.08216,0.0992 -0.02077,0.0641 c -0.01142,0.0353 -0.02863,0.0779 -0.03825,0.0947 -0.0096,0.0168 -0.02728,0.0581 -0.03925,0.0917 -0.01197,0.0336 -0.02662,0.0681 -0.03255,0.0765 -0.0059,0.008 -0.03695,0.0797 -0.06895,0.15832 -0.03199,0.0786 -0.06361,0.15209 -0.07026,0.16331 -0.0067,0.0112 -0.02376,0.0503 -0.03802,0.0868 -0.01426,0.0365 -0.04053,0.10063 -0.05838,0.14254 -0.01785,0.0419 -0.03245,0.0821 -0.03245,0.0893 0,0.0147 0.03962,0.0178 0.05842,0.005 0.0067,-0.005 0.05264,-0.017 0.102064,-0.0272 0.04943,-0.0102 0.09853,-0.0225 0.109125,-0.0273 0.01059,-0.005 0.06836,-0.0204 0.128383,-0.0346 0.06002,-0.0143 0.152454,-0.0368 0.205411,-0.0501 0.05296,-0.0133 0.145394,-0.036 0.205412,-0.0504 0.06002,-0.0144 0.12068,-0.0306 0.134802,-0.036 0.01412,-0.005 0.06323,-0.0176 0.109126,-0.0272 0.0459,-0.01 0.08946,-0.0211 0.09681,-0.0255 0.0074,-0.004 0.04124,-0.0131 0.07531,-0.0191 0.05752,-0.0103 0.06499,-0.009 0.104534,0.0148 0.02342,0.0142 0.04797,0.0258 0.05455,0.0258 0.0066,0 0.02578,0.009 0.04265,0.0192 0.01688,0.0106 0.08554,0.0406 0.152581,0.0669 0.06704,0.0262 0.132128,0.0521 0.144642,0.0576 0.01251,0.005 0.05584,0.0196 0.09629,0.0314 0.04044,0.0118 0.07931,0.025 0.08637,0.0293 0.0071,0.004 0.05039,0.0159 0.09629,0.0258 0.0459,0.01 0.08958,0.0217 0.09708,0.0263 0.03545,0.0215 0.423112,0.0872 0.570513,0.0967 0.06002,0.004 0.120679,0.0107 0.134802,0.0151 0.03641,0.0115 0.567825,0.0114 0.615325,-1.6e-4 z m 0.585052,-1.17035 c -0.06002,-0.008 -0.12068,-0.0187 -0.134802,-0.0242 -0.01412,-0.005 -0.06818,-0.0191 -0.120118,-0.0303 -0.05194,-0.0112 -0.101049,-0.0244 -0.109125,-0.0294 -0.0081,-0.005 -0.04324,-0.0146 -0.07815,-0.0214 -0.0349,-0.007 -0.0869,-0.0206 -0.115545,-0.0308 -0.02864,-0.0102 -0.08306,-0.0265 -0.12093,-0.0363 -0.03787,-0.01 -0.08409,-0.0241 -0.102706,-0.0319 -0.01862,-0.008 -0.03831,-0.0141 -0.04375,-0.0141 -0.01702,-1.1e-4 -0.233808,-0.0858 -0.238314,-0.0942 -0.0024,-0.004 -0.0111,-0.008 -0.01943,-0.008 -0.0083,0 -0.04517,-0.0161 -0.08187,-0.0357 -0.0367,-0.0197 -0.06956,-0.0357 -0.07303,-0.0357 -0.0035,0 -0.04461,-0.0218 -0.09141,-0.0485 -0.04681,-0.0267 -0.100115,-0.0563 -0.118462,-0.0658 -0.01835,-0.01 -0.03839,-0.0244 -0.04453,-0.0332 -0.0061,-0.009 -0.01734,-0.0159 -0.02488,-0.0159 -0.044,0 -0.537389,-0.39383 -0.65855,-0.52565 -0.02064,-0.0225 -0.04364,-0.0454 -0.05111,-0.051 -0.0075,-0.006 -0.03091,-0.0304 -0.05209,-0.0551 -0.02118,-0.0247 -0.05006,-0.0575 -0.06418,-0.073 -0.01412,-0.0155 -0.05402,-0.0619 -0.08866,-0.10312 -0.03464,-0.0412 -0.06968,-0.0796 -0.07788,-0.0852 -0.0082,-0.006 -0.02386,-0.024 -0.03481,-0.0408 -0.01095,-0.0169 -0.04322,-0.0637 -0.07171,-0.10422 -0.02849,-0.0405 -0.06203,-0.0956 -0.07452,-0.12249 -0.0125,-0.0269 -0.02771,-0.0541 -0.0338,-0.0606 -0.0061,-0.006 -0.0264,-0.057 -0.04512,-0.11227 -0.02673,-0.079 -0.03506,-0.13008 -0.03879,-0.23797 -0.0026,-0.0756 7.62e-4,-0.14675 0.0075,-0.1582 0.0067,-0.0115 0.01915,-0.0484 0.02759,-0.0821 0.01702,-0.068 0.08224,-0.18394 0.145031,-0.25792 0.05501,-0.0648 0.197491,-0.17865 0.25309,-0.20222 0.06486,-0.0275 0.362108,-0.0343 0.427086,-0.01 0.0486,0.0183 0.09713,0.0786 0.147635,0.18334 0.01602,0.0332 0.03416,0.0654 0.0403,0.0714 0.0061,0.006 0.02154,0.0375 0.03421,0.0697 0.01267,0.0323 0.02714,0.0587 0.03214,0.0587 0.005,0 0.01292,0.0121 0.01758,0.0268 0.01071,0.0339 0.104272,0.21317 0.132505,0.25384 0.03734,0.0538 0.02806,0.12431 -0.02554,0.1941 -0.0258,0.0336 -0.07069,0.0817 -0.09975,0.107 -0.08703,0.0756 -0.133551,0.12275 -0.158219,0.16024 -0.02288,0.0348 -0.02279,0.0364 0.0045,0.0831 0.02725,0.0466 0.11155,0.15488 0.128452,0.16496 0.0047,0.003 0.01551,0.0156 0.024,0.0284 0.02526,0.0381 0.261612,0.25879 0.330325,0.3084 0.233875,0.16884 0.401518,0.26024 0.658115,0.35879 0.07488,0.0288 0.17369,0.0624 0.219587,0.0748 0.07171,0.0193 0.08887,0.0207 0.121963,0.01 0.03953,-0.013 0.154475,-0.10915 0.241745,-0.20211 0.08213,-0.0875 0.185675,-0.17703 0.210734,-0.18224 0.0324,-0.007 0.150166,0.018 0.227949,0.0479 0.140088,0.0538 0.291013,0.10747 0.302458,0.10747 0.0066,0 0.01208,0.005 0.01208,0.0102 0,0.006 0.0061,0.0102 0.01353,0.0102 0.0074,0 0.09949,0.0333 0.204557,0.074 0.208357,0.0807 0.21858,0.0886 0.218155,0.16889 -3.39e-4,0.064 -0.02224,0.18159 -0.03793,0.20375 -0.0069,0.01 -0.01849,0.0366 -0.02571,0.0597 -0.01467,0.0468 -0.08113,0.12105 -0.157474,0.17589 -0.08789,0.0631 -0.16614,0.0996 -0.388451,0.18081 -0.03896,0.0142 -0.285774,0.0463 -0.341861,0.0444 -0.01675,-5.7e-4 -0.07955,-0.007 -0.139573,-0.0153 z"
       style="fill:#000000;stroke-width:0.01144715" />
  </g>
</svg>
